<svg width="24" height="21" viewBox="0 0 24 21" fill="none" xmlns="http://www.w3.org/2000/svg">
<path d="M17.5312 0.337891C15.5348 0.337891 13.7847 1.22809 12.4701 2.91231C12.2948 3.13694 12.1385 3.36166 12 3.5793C11.8615 3.36161 11.7052 3.13694 11.5299 2.91231C10.2153 1.22809 8.46516 0.337891 6.46875 0.337891C2.69737 0.337891 0 3.49572 0 7.28495C0 11.6178 3.55111 15.7012 11.5142 20.5253C11.6635 20.6157 11.8318 20.6609 12 20.6609C12.1682 20.6609 12.3365 20.6157 12.4858 20.5253C20.4489 15.7013 24 11.6178 24 7.285C24 3.49773 21.3048 0.337891 17.5312 0.337891ZM19.648 12.68C17.9902 14.5298 15.4849 16.4776 12 18.6249C8.51508 16.4776 6.00984 14.5298 4.35202 12.6801C2.68523 10.8203 1.875 9.05552 1.875 7.285C1.875 4.55669 3.71878 2.21289 6.46875 2.21289C7.86919 2.21289 9.06328 2.8218 10.0179 4.02273C10.7812 4.98316 11.1028 5.97489 11.1051 5.98197C11.2272 6.37361 11.5898 6.64038 12 6.64038C12.4103 6.64038 12.7729 6.37366 12.895 5.98197C12.898 5.9725 13.2099 5.0117 13.9482 4.06595C14.9079 2.83633 16.1135 2.21284 17.5312 2.21284C20.2841 2.21284 22.125 4.55889 22.125 7.28495C22.125 9.05547 21.3148 10.8202 19.648 12.68Z" fill="#65D36E"/>
</svg>
